# xmcd
#
# Track frame offsets:
#	150
#	3422
#	15086
#	34349
#	51150
#	66420
#	84465
#	99771
#	115518
#	128886
#	142895
#	158720
#	163744
#
# Disc length: 2375 seconds
#
# Revision: 1
# Processed by: cddbd v1.5.2PL0 Copyright (c) Steve Scherf et al.
# Submitted via: audiograbber 1.83.01
#
DISCID=9609450d
DTITLE=Kenny Rogers - Gideon
DYEAR=1980
DGENRE=Country
TTITLE0=Goin' Home to the Rock (Intro)
TTITLE1=Gideon Tanner
TTITLE2=No Good Texas Rounder
TTITLE3=Don't Fall in Love with a Dreamer (with Kim Carnes)
TTITLE4=The Buckeroos
TTITLE5=You Were A Good Friend
TTITLE6=Call Me Up (The Phone Is In The Cradle)
TTITLE7=These Chains
TTITLE8=Somebody Help Me
TTITLE9=One Place In The Night
TTITLE10=Sayin' Goodbye
TTITLE11=Goin' Home to the Rock (Reprise)
TTITLE12=Love The World Away
EXTD=
EXTT0=
EXTT1=
EXTT2=
EXTT3=
EXTT4=
EXTT5=
EXTT6=
EXTT7=
EXTT8=
EXTT9=
EXTT10=
EXTT11=
EXTT12=
PLAYORDER=
